<svg width="58" height="64" viewBox="0 0 58 64" fill="none" xmlns="http://www.w3.org/2000/svg">
<g id="Group">
<path id="Vector" d="M16.4049 63.4999C17.3758 63.4999 18.3698 63.4943 19.3855 63.4943H38.6124C39.6267 63.4943 40.6207 63.4999 41.5916 63.4999C50.4879 63.4999 57.2856 63.0449 57.2856 53.7447C57.2856 44.0105 49.8411 36.0193 40.3337 35.1506C40.2581 38.5561 29.0021 46.9603 29.0021 46.9603C29.0021 46.9603 17.7433 38.5568 17.667 35.1513C8.161 36.0193 0.715103 44.0105 0.715103 53.7447C0.715103 63.0449 7.51 63.4999 16.4049 63.4999ZM37.4 50.7998C37.4 50.5226 37.6499 50.2993 37.9607 50.2993H41.0015V47.2599C41.0015 46.9519 41.2234 46.6992 41.5006 46.6992H44.5015C44.7773 46.6992 45.0006 46.9498 45.0006 47.2599V50.3H48.04C48.348 50.3 48.6 50.5233 48.6 50.8005V53.8C48.6 54.0772 48.3501 54.3005 48.04 54.3005H44.9999V57.3399C44.9999 57.6493 44.7759 57.8999 44.4994 57.8999H41.4999C41.2227 57.8999 40.9994 57.65 40.9994 57.3399V54.2998H37.96C37.6506 54.2998 37.3993 54.0765 37.3993 53.7993L37.4 50.7998Z" fill="#63D065"/>
<path id="Vector_2" d="M29.0056 37.5944C37.6044 37.5944 44.5743 24.6647 44.5743 16.0666C44.5743 7.4699 37.6044 0.5 29.0056 0.5C20.4082 0.5 13.4383 7.4699 13.4383 16.0666C13.4383 24.6647 20.4082 37.5944 29.0056 37.5944Z" fill="#63D065"/>
</g>
</svg>
