<svg width="70" height="70" viewBox="0 0 70 70" fill="none" xmlns="http://www.w3.org/2000/svg">
<g clip-path="url(#clip0_4216_1414)">
<path d="M51.8908 6.47168L58.3556 0.00685563L69.9912 11.6424L63.5264 18.1072L51.8908 6.47168Z" fill="#1A90F0"/>
<path d="M11.0157 56.0841L5.99139 61.1082L8.89161 64.0084L13.9159 58.9843L28.1003 51.2585L18.7414 41.8997L11.0157 56.0841Z" fill="#1A90F0"/>
<path d="M39.2724 16.1613C33.1832 19.3785 28.4723 24.6916 26.0073 31.1222C25.2286 33.1536 24.1808 35.0715 22.8924 36.8242L21.2313 38.589L31.4109 48.7686L33.1757 47.1075C34.9283 45.8191 36.8462 44.7713 38.8778 43.9925C45.3083 41.5276 50.6214 36.8165 53.8385 30.7274C55.6955 27.2127 57.9886 23.9616 60.6674 21.0362L48.9637 9.33252C46.0381 12.0114 42.7869 14.3044 39.2724 16.1613ZM36.5202 36.3797L33.62 33.4795L36.5202 30.5793L39.4205 33.4795L36.5202 36.3797ZM42.345 30.5552L39.4447 27.655L42.3449 24.7547L45.2452 27.6549L42.345 30.5552Z" fill="#1A90F0"/>
<path d="M0 65.8982H4.10156V69.9998H0V65.8982Z" fill="#1A90F0"/>
<path d="M8.2373 65.8982H12.3389V69.9998H8.2373V65.8982Z" fill="#1A90F0"/>
<path d="M0 57.6609H4.10156V61.7625H0V57.6609Z" fill="#1A90F0"/>
</g>
<defs>
<clipPath id="clip0_4216_1414">
<rect width="70" height="70" fill="white"/>
</clipPath>
</defs>
</svg>
