<svg width="70" height="70" viewBox="0 0 70 70" fill="none" xmlns="http://www.w3.org/2000/svg">
<path d="M24.4891 13.9234C24.5109 13.8578 24.5219 13.7922 24.5438 13.7266H17.4016C16.5325 13.7291 15.6756 13.9305 14.8964 14.3154C14.1172 14.7002 13.4365 15.2583 12.9063 15.9469L5.53439 25.6375C4.9941 26.3436 4.63035 27.1686 4.47345 28.0437H20.4969L24.4891 13.9234Z" fill="#00D4DA"/>
<path d="M20.5078 30.2312H4.50623C4.68571 31.1013 5.07213 31.9154 5.63279 32.6046L30.3625 63.2296L30.2422 62.825L20.5078 30.2312Z" fill="#00D4DA"/>
<path d="M39.7578 62.814C38.683 64.8518 64.5865 32.1138 64.3673 32.6049C64.9268 31.9135 65.3163 31.1005 65.5046 30.2312H49.4921L39.7578 62.814Z" fill="#00D4DA"/>
<path d="M57.0938 15.9469C56.5635 15.2583 55.8828 14.7002 55.1036 14.3154C54.3244 13.9305 53.4675 13.7291 52.5984 13.7266H45.4453C45.4756 13.794 45.5012 13.8634 45.5219 13.9344L49.5031 28.0437H65.5266C65.3697 27.1686 65.0059 26.3436 64.4656 25.6375L57.0938 15.9469Z" fill="#00D4DA"/>
<path d="M22.7938 30.2312L32.3422 62.1906L33.1188 64.7718C33.3621 65.5985 34.2854 65.611 35 65.625C35.7143 65.6111 36.6382 65.599 36.8812 64.7718L37.6578 62.1906L47.2062 30.2312H22.7938Z" fill="#00D4DA"/>
<path d="M47.2172 28.0437C46.9921 27.2308 43.5343 14.9562 43.411 14.525C43.3473 14.2954 43.2102 14.093 43.0205 13.9488C42.8309 13.8046 42.5992 13.7265 42.361 13.7265H27.6391C26.5351 13.683 26.4539 15.1639 26.1953 15.914L22.7828 28.0437H47.2172Z" fill="#00D4DA"/>
<path d="M18.8125 56.897C17.4031 56.6161 16.1085 55.9239 15.0924 54.9077C14.0762 53.8915 13.3839 52.597 13.1031 51.1876C13.0526 50.9405 12.9184 50.7185 12.7231 50.5591C12.5278 50.3996 12.2834 50.3125 12.0312 50.3125C11.7791 50.3125 11.5347 50.3996 11.3394 50.5591C11.144 50.7185 11.0098 50.9405 10.9593 51.1876C10.6785 52.597 9.98628 53.8915 8.9701 54.9077C7.95391 55.9239 6.65936 56.6161 5.24997 56.897C5.00613 56.9512 4.78807 57.087 4.63178 57.2818C4.47549 57.4767 4.39032 57.719 4.39032 57.9688C4.39032 58.2186 4.47549 58.461 4.63178 58.6558C4.78807 58.8507 5.00613 58.9865 5.24997 59.0407C6.65936 59.3216 7.95389 60.0138 8.97007 61.03C9.98625 62.0462 10.6785 63.3407 10.9593 64.7501C11.0098 64.9971 11.144 65.2192 11.3394 65.3786C11.5347 65.5381 11.7791 65.6252 12.0312 65.6252C12.2834 65.6252 12.5278 65.5381 12.7231 65.3786C12.9184 65.2192 13.0526 64.9971 13.1031 64.7501C13.384 63.3407 14.0762 62.0462 15.0924 61.03C16.1086 60.0138 17.4031 59.3216 18.8125 59.0407C19.0563 58.9864 19.2743 58.8507 19.4305 58.6558C19.5868 58.4609 19.6719 58.2186 19.6719 57.9688C19.6719 57.7191 19.5868 57.4768 19.4305 57.2819C19.2743 57.087 19.0563 56.9512 18.8125 56.897Z" fill="#00D4DA"/>
<path d="M55.5625 10.9157C56.4316 11.0895 57.2299 11.5167 57.8566 12.1435C58.4834 12.7702 58.9106 13.5684 59.0844 14.4376C59.1348 14.6846 59.2691 14.9067 59.4644 15.0661C59.6597 15.2256 59.9041 15.3127 60.1562 15.3127C60.4084 15.3127 60.6528 15.2256 60.8481 15.0661C61.0434 14.9067 61.1777 14.6846 61.2281 14.4376C61.4019 13.5684 61.8291 12.7702 62.4559 12.1435C63.0826 11.5167 63.8809 11.0895 64.75 10.9157C64.9939 10.8615 65.212 10.7258 65.3683 10.5309C65.5246 10.336 65.6098 10.0937 65.6098 9.84384C65.6098 9.59402 65.5246 9.35167 65.3683 9.15679C65.212 8.96192 64.9939 8.82617 64.75 8.77196C63.8808 8.59817 63.0826 8.17098 62.4558 7.54423C61.8291 6.91749 61.4019 6.11923 61.2281 5.25009C61.1777 5.00304 61.0434 4.78101 60.8481 4.62155C60.6528 4.4621 60.4084 4.375 60.1562 4.375C59.9041 4.375 59.6597 4.4621 59.4644 4.62155C59.2691 4.78101 59.1348 5.00304 59.0844 5.25009C58.9106 6.11923 58.4834 6.91749 57.8566 7.54423C57.2299 8.17098 56.4316 8.59817 55.5625 8.77196C55.3186 8.82618 55.1006 8.96193 54.9442 9.15681C54.7879 9.35168 54.7028 9.59402 54.7028 9.84384C54.7028 10.0937 54.7879 10.336 54.9442 10.5309C55.1006 10.7257 55.3186 10.8615 55.5625 10.9157Z" fill="#00D4DA"/>
</svg>
