<svg width="70" height="70" viewBox="0 0 70 70" fill="none" xmlns="http://www.w3.org/2000/svg">
<g clip-path="url(#clip0_4216_445)">
<path d="M56.875 27.4669V21.875C56.875 9.81387 47.0611 0 35.0001 0C22.939 0 13.1251 9.81387 13.1251 21.875V27.4669C10.5224 28.9845 8.75012 31.7752 8.75012 35V61.2499C8.75012 66.0757 12.6743 69.9999 17.5001 69.9999H52.5001C57.3258 69.9999 61.25 66.0757 61.25 61.2499V35C61.25 31.7751 59.4777 28.9843 56.875 27.4669ZM35.0001 8.74993C42.2376 8.74993 48.1251 14.6373 48.1251 21.875V26.2499H21.875V21.875C21.875 14.6374 27.7625 8.74993 35.0001 8.74993ZM39.375 50.7968V56.875H30.6251V50.7968C29.2915 49.5958 28.4376 47.8734 28.4376 45.9374C28.4376 42.313 31.3757 39.375 35.0001 39.375C38.6245 39.375 41.5625 42.313 41.5625 45.9374C41.5625 47.8734 40.7086 49.5958 39.375 50.7968Z" fill="#63D065"/>
</g>
<defs>
<clipPath id="clip0_4216_445">
<rect width="70" height="70" fill="white"/>
</clipPath>
</defs>
</svg>
